RobotoExtremo-YOPQmax.ufo
<glyph name="exclam" format="2">
  <advance width="620"/>
  <unicode hex="0021"/>
  <outline>
    <contour>
      <point x="186.0" y="169.0" type="qcurve" smooth="yes"/>
      <point x="186.0" y="248.0"/>
      <point x="250.0" y="360.0"/>
      <point x="310.0" y="360.0" type="qcurve" smooth="yes"/>
      <point x="370.0" y="360.0"/>
      <point x="434.0" y="248.0"/>
      <point x="434.0" y="169.0" type="qcurve" smooth="yes"/>
      <point x="434.0" y="90.0"/>
      <point x="370.0" y="-22.0"/>
      <point x="310.0" y="-22.0" type="qcurve" smooth="yes"/>
      <point x="250.0" y="-22.0"/>
      <point x="186.0" y="90.0"/>
    </contour>
    <contour>
      <point x="228.0" y="500.0" type="line"/>
      <point x="213.0" y="1456.0" type="line"/>
      <point x="407.0" y="1456.0" type="line"/>
      <point x="392.0" y="500.0" type="line"/>
    </contour>
  </outline>
</glyph>
<glyph name="numbersign" format="2">
  <advance width="1544"/>
  <unicode hex="0023"/>
  <outline>
    <contour>
      <point x="216.0" y="-20.0" type="line"/>
      <point x="360.0" y="-20.0" type="line"/>
      <point x="872.0" y="1626.0" type="line"/>
      <point x="728.0" y="1626.0" type="line"/>
    </contour>
    <contour>
      <point x="722.0" y="-20.0" type="line"/>
      <point x="866.0" y="-20.0" type="line"/>
      <point x="1378.0" y="1626.0" type="line"/>
      <point x="1234.0" y="1626.0" type="line"/>
    </contour>
    <contour>
      <point x="64.0" y="338.0" type="line"/>
      <point x="1405.0" y="338.0" type="line"/>
      <point x="1405.0" y="588.0" type="line"/>
      <point x="64.0" y="588.0" type="line"/>
    </contour>
    <contour>
      <point x="190.0" y="1018.0" type="line"/>
      <point x="1530.0" y="1018.0" type="line"/>
      <point x="1530.0" y="1268.0" type="line"/>
      <point x="190.0" y="1268.0" type="line"/>
    </contour>
  </outline>
</glyph>
<glyph name="dollar" format="2">
  <advance width="1024"/>
  <unicode hex="0024"/>
  <outline>
    <contour>
      <point x="21.0" y="468.0" type="line" smooth="yes"/>
      <point x="21.0" y="255.0"/>
      <point x="290.0" y="3.0"/>
      <point x="510.0" y="3.0" type="qcurve" smooth="yes"/>
      <point x="732.0" y="3.0"/>
      <point x="990.0" y="249.0"/>
      <point x="990.0" y="448.0" type="qcurve" smooth="yes"/>
      <point x="990.0" y="652.0"/>
      <point x="825.0" y="957.0"/>
      <point x="591.0" y="1049.0" type="qcurve" smooth="yes"/>
      <point x="398.0" y="1128.0"/>
      <point x="241.0" y="1243.0"/>
      <point x="241.0" y="1326.0" type="qcurve" smooth="yes"/>
      <point x="241.0" y="1407.0"/>
      <point x="361.0" y="1490.0"/>
      <point x="509.0" y="1490.0" type="qcurve" smooth="yes"/>
      <point x="657.0" y="1490.0"/>
      <point x="792.0" y="1405.0"/>
      <point x="785.0" y="1305.0" type="qcurve" smooth="yes"/>
      <point x="785.0" y="1291.0" type="line"/>
      <point x="969.0" y="1291.0" type="line"/>
      <point x="969.0" y="1305.0" type="line" smooth="yes"/>
      <point x="969.0" y="1490.0"/>
      <point x="713.0" y="1760.0"/>
      <point x="503.0" y="1760.0" type="qcurve" smooth="yes"/>
      <point x="304.0" y="1760.0"/>
      <point x="50.0" y="1539.0"/>
      <point x="50.0" y="1334.0" type="qcurve" smooth="yes"/>
      <point x="50.0" y="1129.0"/>
      <point x="274.0" y="812.0"/>
      <point x="477.0" y="738.0" type="qcurve" smooth="yes"/>
      <point x="717.0" y="654.0"/>
      <point x="816.0" y="556.0"/>
      <point x="816.0" y="469.0" type="qcurve" smooth="yes"/>
      <point x="816.0" y="382.0"/>
      <point x="672.0" y="286.0"/>
      <point x="516.0" y="286.0" type="qcurve" smooth="yes"/>
      <point x="385.0" y="286.0"/>
      <point x="198.0" y="366.0"/>
      <point x="198.0" y="466.0" type="qcurve" smooth="yes"/>
      <point x="198.0" y="482.0" type="line"/>
      <point x="21.0" y="482.0" type="line"/>
    </contour>
    <contour>
      <point x="434.0" y="-110.0" type="line"/>
      <point x="584.0" y="-110.0" type="line"/>
      <point x="584.0" y="130.0" type="line"/>
      <point x="574.0" y="140.0" type="line"/>
      <point x="574.0" y="818.0" type="line"/>
      <point x="434.0" y="818.0" type="line"/>
    </contour>
    <contour>
      <point x="446.0" y="818.0" type="line"/>
      <point x="586.0" y="818.0" type="line"/>
      <point x="586.0" y="1946.0" type="line"/>
      <point x="436.0" y="1946.0" type="line"/>
      <point x="436.0" y="1606.0" type="line"/>
      <point x="446.0" y="1596.0" type="line"/>
    </contour>
  </outline>
</glyph>
<glyph name="ampersand" format="2">
  <advance width="1280"/>
  <unicode hex="0026"/>
  <outline>
    <contour>
      <point x="80.0" y="380.0" type="qcurve" smooth="yes"/>
      <point x="80.0" y="210.0"/>
      <point x="330.0" y="-20.0"/>
      <point x="550.0" y="-20.0" type="qcurve" smooth="yes"/>
      <point x="810.0" y="-20.0"/>
      <point x="1162.0" y="380.0"/>
      <point x="1162.0" y="674.0" type="qcurve"/>
      <point x="990.0" y="674.0" type="line"/>
      <point x="990.0" y="470.0"/>
      <point x="730.0" y="240.0"/>
      <point x="550.0" y="240.0" type="qcurve" smooth="yes"/>
      <point x="420.0" y="240.0"/>
      <point x="264.0" y="325.0"/>
      <point x="264.0" y="400.0" type="qcurve" smooth="yes"/>
      <point x="264.0" y="475.0"/>
      <point x="410.0" y="579.4668958756388"/>
      <point x="550.0" y="640.0" type="qcurve" smooth="yes"/>
      <point x="710.0" y="760.0" type="line" smooth="yes"/>
      <point x="806.0" y="825.0"/>
      <point x="922.0" y="995.0"/>
      <point x="922.0" y="1120.0" type="qcurve" smooth="yes"/>
      <point x="922.0" y="1275.0"/>
      <point x="730.0" y="1486.0"/>
      <point x="575.0" y="1486.0" type="qcurve" smooth="yes"/>
      <point x="420.0" y="1486.0"/>
      <point x="210.0" y="1265.0"/>
      <point x="210.0" y="1100.0" type="qcurve" smooth="yes"/>
      <point x="210.0" y="1000.0"/>
      <point x="324.0" y="825.0"/>
      <point x="430.0" y="680.0" type="qcurve" smooth="yes"/>
      <point x="1034.0" y="0.0" type="line"/>
      <point x="1256.0" y="0.0" type="line"/>
      <point x="570.0" y="860.0" type="line" smooth="yes"/>
      <point x="472.0" y="948.0"/>
      <point x="392.0" y="1045.0"/>
      <point x="392.0" y="1100.0" type="qcurve" smooth="yes"/>
      <point x="392.0" y="1150.0"/>
      <point x="490.0" y="1226.0"/>
      <point x="575.0" y="1226.0" type="qcurve" smooth="yes"/>
      <point x="660.0" y="1226.0"/>
      <point x="750.0" y="1160.0"/>
      <point x="750.0" y="1110.0" type="qcurve" smooth="yes"/>
      <point x="750.0" y="1065.0"/>
      <point x="690.0" y="995.0"/>
      <point x="610.0" y="960.0" type="qcurve" smooth="yes"/>
      <point x="450.0" y="840.0" type="line" smooth="yes"/>
      <point x="300.0" y="760.0"/>
      <point x="80.0" y="550.0"/>
    </contour>
  </outline>
</glyph>
<glyph name="parenleft" format="2">
  <advance width="700"/>
  <unicode hex="0028"/>
  <outline>
    <contour>
      <point x="664.0" y="-436.0" type="line"/>
      <point x="460.0" y="-320.0"/>
      <point x="124.0" y="140.0"/>
      <point x="124.0" y="515.0" type="qcurve" smooth="yes"/>
      <point x="124.0" y="525.0" type="line" smooth="yes"/>
      <point x="124.0" y="900.0"/>
      <point x="460.0" y="1360.0"/>
      <point x="664.0" y="1476.0" type="qcurve"/>
      <point x="664.0" y="1196.0" type="line"/>
      <point x="540.0" y="1123.570349534971"/>
      <point x="319.0" y="800.0"/>
      <point x="319.0" y="532.0" type="qcurve" smooth="yes"/>
      <point x="319.0" y="508.0" type="line" smooth="yes"/>
      <point x="319.0" y="240.0"/>
      <point x="540.0" y="-83.57034953497089"/>
      <point x="664.0" y="-156.0" type="qcurve"/>
    </contour>
  </outline>
</glyph>
<glyph name="parenright" format="2">
  <advance width="700"/>
  <unicode hex="0029"/>
  <outline>
    <contour>
      <point x="36.0" y="-436.0" type="qcurve"/>
      <point x="36.0" y="-156.0" type="line"/>
      <point x="160.0" y="-84.0"/>
      <point x="381.0" y="240.0"/>
      <point x="381.0" y="508.0" type="qcurve" smooth="yes"/>
      <point x="381.0" y="532.0" type="line" smooth="yes"/>
      <point x="381.0" y="800.0"/>
      <point x="160.0" y="1124.0"/>
      <point x="36.0" y="1196.0" type="qcurve"/>
      <point x="36.0" y="1476.0" type="line"/>
      <point x="240.0" y="1360.0"/>
      <point x="576.0" y="900.0"/>
      <point x="576.0" y="525.0" type="qcurve" smooth="yes"/>
      <point x="576.0" y="515.0" type="line" smooth="yes"/>
      <point x="576.0" y="140.0"/>
      <point x="240.0" y="-320.0"/>
    </contour>
  </outline>
</glyph>
<glyph name="hyphen" format="2">
  <advance width="684"/>
  <unicode hex="002D"/>
  <outline>
    <contour>
      <point x="60" y="544" type="line"/>
      <point x="60" y="716" type="line"/>
      <point x="624" y="716" type="line"/>
      <point x="624" y="544" type="line"/>
    </contour>
  </outline>
</glyph>
<glyph name="three" format="2">
  <advance width="1156"/>
  <unicode hex="0033"/>
  <outline>
    <contour>
      <point x="80.0" y="420.0" type="line" smooth="yes"/>
      <point x="80.0" y="222.0"/>
      <point x="348.0" y="-30.0"/>
      <point x="558.0" y="-30.0" type="qcurve" smooth="yes"/>
      <point x="768.0" y="-30.0"/>
      <point x="1042.0" y="210.46563192904657"/>
      <point x="1042.0" y="420.0" type="qcurve" smooth="yes"/>
      <point x="1042.0" y="551.3841642228739"/>
      <point x="890.0" y="726.8964074445738"/>
      <point x="764.0" y="762.0" type="qcurve"/>
      <point x="764.0" y="766.0" type="line"/>
      <point x="880.0" y="822.9819578443154"/>
      <point x="990.0" y="986.0"/>
      <point x="990.0" y="1080.0" type="qcurve" smooth="yes"/>
      <point x="990.0" y="1259.0"/>
      <point x="748.0" y="1486.0"/>
      <point x="558.0" y="1486.0" type="qcurve" smooth="yes"/>
      <point x="368.0" y="1486.0"/>
      <point x="120.0" y="1237.0"/>
      <point x="120.0" y="1060.0" type="qcurve" smooth="yes"/>
      <point x="120.0" y="1050.0" type="line"/>
      <point x="306.0" y="1050.0" type="line"/>
      <point x="306.0" y="1060.0" type="line" smooth="yes"/>
      <point x="306.0" y="1135.1807228915663"/>
      <point x="448.0" y="1216.0"/>
      <point x="558.0" y="1216.0" type="qcurve" smooth="yes"/>
      <point x="668.0" y="1216.0"/>
      <point x="798.0" y="1139.0684931506848"/>
      <point x="798.0" y="1060.0" type="qcurve" smooth="yes"/>
      <point x="798.0" y="979.7222222222222"/>
      <point x="648.0" y="890.0"/>
      <point x="510.0" y="890.0" type="qcurve" smooth="yes"/>
      <point x="405.0" y="890.0" type="line"/>
      <point x="405.0" y="620.0" type="line"/>
      <point x="520.0" y="620.0" type="line" smooth="yes"/>
      <point x="670.0" y="620.0"/>
      <point x="848.0" y="529.0526315789474"/>
      <point x="848.0" y="440.0" type="qcurve" smooth="yes"/>
      <point x="848.0" y="337.89473684210526"/>
      <point x="690.0" y="240.0"/>
      <point x="558.0" y="240.0" type="qcurve" smooth="yes"/>
      <point x="426.0" y="240.0"/>
      <point x="266.0" y="334.7368421052632"/>
      <point x="266.0" y="420.0" type="qcurve" smooth="yes"/>
      <point x="266.0" y="430.0" type="line"/>
      <point x="80.0" y="430.0" type="line"/>
    </contour>
  </outline>
</glyph>
<glyph name="four" format="2">
  <advance width="1156"/>
  <unicode hex="0034"/>
  <outline>
    <contour>
      <point x="724.0" y="0.0" type="line"/>
      <point x="724.0" y="398.0" type="line"/>
      <point x="724.0" y="453.0" type="line"/>
      <point x="724.0" y="1010.0" type="line"/>
      <point x="712.0" y="1010.0" type="line"/>
      <point x="359.0" y="500.0" type="line"/>
      <point x="775.0" y="500.0" type="line"/>
      <point x="852.0" y="500.0" type="line"/>
      <point x="1108.0" y="500.0" type="line"/>
      <point x="1108.0" y="342.0" type="line"/>
      <point x="50.0" y="342.0" type="line"/>
      <point x="50.0" y="467.0" type="line"/>
      <point x="732.0" y="1456.0" type="line"/>
      <point x="904.0" y="1456.0" type="line"/>
      <point x="904.0" y="0.0" type="line"/>
    </contour>
  </outline>
</glyph>
<glyph name="nine" format="2">
  <advance width="1156"/>
  <unicode hex="0039"/>
  <outline>
    <contour>
      <point x="72.0" y="992.0" type="qcurve" smooth="yes"/>
      <point x="72.0" y="771.5186721991702"/>
      <point x="317.0" y="500.0"/>
      <point x="516.0" y="500.0" type="qcurve" smooth="yes"/>
      <point x="716.0" y="500.0"/>
      <point x="956.0" y="772.0"/>
      <point x="956.0" y="992.0" type="qcurve"/>
      <point x="886.0" y="992.0" type="line"/>
      <point x="886.0" y="886.2358490566038"/>
      <point x="686.0" y="770.0"/>
      <point x="556.0" y="770.0" type="qcurve" smooth="yes"/>
      <point x="416.0" y="770.0"/>
      <point x="262.0" y="886.2358490566038"/>
      <point x="262.0" y="992.0" type="qcurve" smooth="yes"/>
      <point x="262.0" y="1098.766355140187"/>
      <point x="416.0" y="1216.0"/>
      <point x="556.0" y="1216.0" type="qcurve" smooth="yes"/>
      <point x="696.0" y="1216.0"/>
      <point x="880.0" y="1050.8235294117646"/>
      <point x="880.0" y="852.0" type="qcurve" smooth="yes"/>
      <point x="880.0" y="802.0" type="line" smooth="yes"/>
      <point x="880.0" y="515.3531157270029"/>
      <point x="556.0" y="250.0"/>
      <point x="276.0" y="250.0" type="qcurve" smooth="yes"/>
      <point x="256.0" y="250.0" type="line"/>
      <point x="256.0" y="-30.0" type="line"/>
      <point x="276.0" y="-30.0" type="line" smooth="yes"/>
      <point x="656.0" y="-30.0"/>
      <point x="1068.0" y="432.0"/>
      <point x="1068.0" y="812.0" type="qcurve" smooth="yes"/>
      <point x="1068.0" y="842.0" type="line" smooth="yes"/>
      <point x="1068.0" y="1182.0"/>
      <point x="766.0" y="1486.0"/>
      <point x="556.0" y="1486.0" type="qcurve" smooth="yes"/>
      <point x="346.0" y="1486.0"/>
      <point x="72.0" y="1212.4628099173553"/>
    </contour>
  </outline>
</glyph>
<glyph name="greater" format="2">
  <advance width="1024"/>
  <unicode hex="003E"/>
  <outline>
    <contour>
      <point x="106.0" y="123.0" type="line"/>
      <point x="106.0" y="483.0" type="line"/>
      <point x="711.0" y="674.0" type="line"/>
      <point x="106.0" y="865.0" type="line"/>
      <point x="106.0" y="1225.0" type="line"/>
      <point x="924.0" y="743.0" type="line"/>
      <point x="924.0" y="599.0" type="line"/>
    </contour>
  </outline>
</glyph>
<glyph name="A" format="2">
  <advance width="1309"/>
  <unicode hex="0041"/>
  <anchor x="669.0" y="1432.0" name="top"/>
  <outline>
    <contour>
      <point x="0" y="0" type="line"/>
      <point x="554" y="1466" type="line"/>
      <point x="755" y="1466" type="line"/>
      <point x="1309" y="0" type="line"/>
      <point x="1109" y="0" type="line"/>
      <point x="709" y="1100" type="line" smooth="yes"/>
      <point x="706" y="1108"/>
      <point x="700" y="1151"/>
      <point x="700" y="1162" type="qcurve"/>
      <point x="692" y="1162" type="line"/>
      <point x="692" y="1151"/>
      <point x="686" y="1104"/>
      <point x="684" y="1098" type="qcurve" smooth="yes"/>
      <point x="281" y="0" type="line"/>
    </contour>
    <contour>
      <point x="249" y="330" type="line"/>
      <point x="341" y="588" type="line"/>
      <point x="994" y="588" type="line"/>
      <point x="1083" y="330" type="line"/>
    </contour>
  </outline>
</glyph>
<glyph name="D" format="2">
  <advance width="1370"/>
  <unicode hex="0044"/>
  <outline>
    <contour>
      <point x="170.0" y="0.0" type="line"/>
      <point x="602.0" y="0.0" type="line" smooth="yes"/>
      <point x="882.0" y="0.0"/>
      <point x="1255.0" y="370.0"/>
      <point x="1255.0" y="682.0" type="qcurve" smooth="yes"/>
      <point x="1255.0" y="774.0" type="line" smooth="yes"/>
      <point x="1255.0" y="1086.0"/>
      <point x="882.0" y="1456.0"/>
      <point x="602.0" y="1456.0" type="qcurve" smooth="yes"/>
      <point x="170.0" y="1456.0" type="line"/>
    </contour>
    <contour>
      <point x="362.0" y="270.0" type="line"/>
      <point x="362.0" y="1186.0" type="line"/>
      <point x="602.0" y="1186.0" type="line" smooth="yes"/>
      <point x="812.0" y="1186.0"/>
      <point x="1061.0" y="967.0"/>
      <point x="1061.0" y="774.0" type="qcurve" smooth="yes"/>
      <point x="1061.0" y="682.0" type="line" smooth="yes"/>
      <point x="1061.0" y="489.0"/>
      <point x="812.0" y="270.0"/>
      <point x="602.0" y="270.0" type="qcurve" smooth="yes"/>
    </contour>
  </outline>
</glyph>
<glyph name="G" format="2">
  <advance width="1358"/>
  <unicode hex="0047"/>
  <outline>
    <contour>
      <point x="115.0" y="682.0" type="qcurve" smooth="yes"/>
      <point x="115.0" y="774.0" type="line" smooth="yes"/>
      <point x="115.0" y="1110.0"/>
      <point x="460.0" y="1486.0"/>
      <point x="720.0" y="1486.0" type="qcurve" smooth="yes"/>
      <point x="980.0" y="1486.0"/>
      <point x="1259.0" y="1203.0"/>
      <point x="1277.0" y="1010.0" type="qcurve" smooth="yes"/>
      <point x="1278.0" y="1000.0" type="line"/>
      <point x="1086.0" y="1000.0" type="line"/>
      <point x="1085.0" y="1010.0" type="line" smooth="yes"/>
      <point x="1075.0" y="1082.0"/>
      <point x="900.0" y="1211.0"/>
      <point x="720.0" y="1211.0" type="qcurve" smooth="yes"/>
      <point x="540.0" y="1211.0"/>
      <point x="309.0" y="978.1459854014598"/>
      <point x="309.0" y="774.0" type="qcurve" smooth="yes"/>
      <point x="309.0" y="682.0" type="line" smooth="yes"/>
      <point x="309.0" y="477.8540145985402"/>
      <point x="540.0" y="245.0"/>
      <point x="750.0" y="245.0" type="qcurve" smooth="yes"/>
      <point x="860.0" y="245.0"/>
      <point x="1020.0" y="291.0"/>
      <point x="1092.0" y="341.0" type="qcurve"/>
      <point x="1092.0" y="520.0" type="line"/>
      <point x="730.0" y="520.0" type="line"/>
      <point x="730.0" y="790.0" type="line"/>
      <point x="1278.0" y="790.0" type="line"/>
      <point x="1278.0" y="160.0" type="line"/>
      <point x="1211.0" y="91"/>
      <point x="940.0" y="-30.0"/>
      <point x="750.0" y="-30.0" type="qcurve" smooth="yes"/>
      <point x="460.0" y="-30.0"/>
      <point x="115.0" y="346.0"/>
    </contour>
  </outline>
</glyph>
<glyph name="J" format="2">
  <advance width="1100"/>
  <unicode hex="004A"/>
  <outline>
    <contour>
      <point x="25" y="508" type="qcurve" smooth="yes"/>
      <point x="25.0" y="520.0" type="line"/>
      <point x="217.0" y="520.0" type="line"/>
      <point x="217.0" y="510.0" type="line" smooth="yes"/>
      <point x="217.0" y="380.0"/>
      <point x="360.0" y="245.0"/>
      <point x="485.0" y="245.0" type="qcurve" smooth="yes"/>
      <point x="610.0" y="245.0"/>
      <point x="753.0" y="395.0"/>
      <point x="753.0" y="535.0" type="qcurve" smooth="yes"/>
      <point x="753.0" y="1456.0" type="line"/>
      <point x="945.0" y="1456.0" type="line"/>
      <point x="945.0" y="426" type="line" smooth="yes"/>
      <point x="945.0" y="214.0"/>
      <point x="690.0" y="-30.0"/>
      <point x="485.0" y="-30.0" type="qcurve" smooth="yes"/>
      <point x="280.0" y="-30.0"/>
      <point x="25" y="199.0"/>
    </contour>
  </outline>
</glyph>
<glyph name="N" format="2">
  <advance width="1524"/>
  <unicode hex="004E"/>
  <anchor x="790.0" y="1432.0" name="top"/>
  <outline>
    <contour>
      <point x="170.0" y="0.0" type="line"/>
      <point x="440.0" y="0.0" type="line"/>
      <point x="440.0" y="918.0" type="line" smooth="yes"/>
      <point x="440.0" y="948.0"/>
      <point x="436.0" y="1023.0"/>
      <point x="432.0" y="1053.0" type="qcurve"/>
      <point x="442.0" y="1053.0" type="line"/>
      <point x="456.0" y="1028.0"/>
      <point x="493.0" y="968.0"/>
      <point x="513.0" y="938.0" type="qcurve" smooth="yes"/>
      <point x="1122.0" y="0.0" type="line"/>
      <point x="1354.0" y="0.0" type="line"/>
      <point x="1354.0" y="1456.0" type="line"/>
      <point x="1084.0" y="1456.0" type="line"/>
      <point x="1084.0" y="456.0" type="line" smooth="yes"/>
      <point x="1084.0" y="438.0"/>
      <point x="1086.0" y="415.0"/>
      <point x="1090.0" y="403.0" type="qcurve"/>
      <point x="1080.0" y="403.0" type="line"/>
      <point x="1066.0" y="428.0"/>
      <point x="1029.0" y="487.0"/>
      <point x="1009.0" y="518.0" type="qcurve" smooth="yes"/>
      <point x="402.0" y="1456.0" type="line"/>
      <point x="170.0" y="1456.0" type="line"/>
    </contour>
  </outline>
</glyph>
<glyph name="P" format="2">
  <advance width="1200"/>
  <unicode hex="0050"/>
  <outline>
    <contour>
      <point x="170.0" y="0.0" type="line"/>
      <point x="362.0" y="0.0" type="line"/>
      <point x="362.0" y="466.0" type="line"/>
      <point x="652.0" y="466.0" type="line" smooth="yes"/>
      <point x="892.0" y="466.0"/>
      <point x="1150.0" y="738.0"/>
      <point x="1150.0" y="963.0" type="qcurve" smooth="yes"/>
      <point x="1150.0" y="1188.0"/>
      <point x="892.0" y="1456.0"/>
      <point x="652.0" y="1456.0" type="qcurve" smooth="yes"/>
      <point x="170.0" y="1456.0" type="line"/>
    </contour>
    <contour>
      <point x="362.0" y="736.0" type="line"/>
      <point x="362.0" y="1186.0" type="line"/>
      <point x="652.0" y="1186.0" type="line" smooth="yes"/>
      <point x="822.0" y="1186.0"/>
      <point x="958.0" y="1058.0"/>
      <point x="958.0" y="963.0" type="qcurve" smooth="yes"/>
      <point x="958.0" y="868.0"/>
      <point x="822.0" y="736.0"/>
      <point x="652.0" y="736.0" type="qcurve" smooth="yes"/>
    </contour>
  </outline>
</glyph>
<glyph name="Q" format="2">
  <advance width="1460"/>
  <unicode hex="0051"/>
  <outline>
    <contour>
      <point x="115.0" y="682.0" type="qcurve" smooth="yes"/>
      <point x="115.0" y="774.0" type="line" smooth="yes"/>
      <point x="115.0" y="1110.0"/>
      <point x="460.0" y="1486.0"/>
      <point x="730.0" y="1486.0" type="qcurve" smooth="yes"/>
      <point x="1000.0" y="1486.0"/>
      <point x="1345.0" y="1110.0"/>
      <point x="1345.0" y="774.0" type="qcurve" smooth="yes"/>
      <point x="1345.0" y="682.0" type="line" smooth="yes"/>
      <point x="1345.0" y="346.0"/>
      <point x="1000.0" y="-30.0"/>
      <point x="730.0" y="-30.0" type="qcurve" smooth="yes"/>
      <point x="460.0" y="-30.0"/>
      <point x="115.0" y="346.0"/>
    </contour>
    <contour>
      <point x="309.0" y="682.0" type="line" smooth="yes"/>
      <point x="309.0" y="480.0"/>
      <point x="540.0" y="250.0"/>
      <point x="730.0" y="250.0" type="qcurve" smooth="yes"/>
      <point x="920.0" y="250.0"/>
      <point x="1151.0" y="480.0"/>
      <point x="1151.0" y="682.0" type="qcurve" smooth="yes"/>
      <point x="1151.0" y="774.0" type="line" smooth="yes"/>
      <point x="1151.0" y="976.0"/>
      <point x="920.0" y="1206.0"/>
      <point x="730.0" y="1206.0" type="qcurve" smooth="yes"/>
      <point x="540.0" y="1206.0"/>
      <point x="309.0" y="976.0"/>
      <point x="309.0" y="774.0" type="qcurve" smooth="yes"/>
    </contour>
    <contour>
      <point x="1200.0" y="-280.0" type="line"/>
      <point x="850.0" y="30.0" type="line"/>
      <point x="975.0" y="265.0" type="line"/>
      <point x="1330.0" y="-40.0" type="line"/>
    </contour>
  </outline>
</glyph>
<glyph name="S" format="2">
  <advance width="1220"/>
  <unicode hex="0053"/>
  <outline>
    <contour>
      <point x="90.0" y="448.0" type="line" smooth="yes"/>
      <point x="90.0" y="226.0"/>
      <point x="380.0" y="-30.0"/>
      <point x="620.0" y="-30.0" type="qcurve" smooth="yes"/>
      <point x="860.0" y="-30.0"/>
      <point x="1140.0" y="200.0"/>
      <point x="1140.0" y="383.0" type="qcurve" smooth="yes"/>
      <point x="1140.0" y="562.0"/>
      <point x="927.0" y="757.0"/>
      <point x="695.0" y="825.0" type="qcurve" smooth="yes"/>
      <point x="467.0" y="892.0"/>
      <point x="310.0" y="990.0"/>
      <point x="310.0" y="1060.0" type="qcurve" smooth="yes"/>
      <point x="310.0" y="1130.0"/>
      <point x="456.0" y="1211.0"/>
      <point x="610.0" y="1211.0" type="qcurve" smooth="yes"/>
      <point x="764.0" y="1211.0"/>
      <point x="920.0" y="1102.0"/>
      <point x="920.0" y="1014.0" type="qcurve" smooth="yes"/>
      <point x="920.0" y="1002.0" type="line"/>
      <point x="1112.0" y="1002.0" type="line"/>
      <point x="1112.0" y="1014.0" type="line" smooth="yes"/>
      <point x="1112.0" y="1239.0"/>
      <point x="840.0" y="1486.0"/>
      <point x="610.0" y="1486.0" type="qcurve" smooth="yes"/>
      <point x="380.0" y="1486.0"/>
      <point x="120.0" y="1260.0"/>
      <point x="120.0" y="1066.0" type="qcurve" smooth="yes"/>
      <point x="120.0" y="920.0"/>
      <point x="323.0" y="732.0"/>
      <point x="555.0" y="666.0" type="qcurve" smooth="yes"/>
      <point x="796.0" y="598.0"/>
      <point x="950.0" y="484.0"/>
      <point x="950.0" y="410.0" type="qcurve" smooth="yes"/>
      <point x="950.0" y="336.0"/>
      <point x="780.0" y="245.0"/>
      <point x="620.0" y="245.0" type="qcurve" smooth="yes"/>
      <point x="460.0" y="245.0"/>
      <point x="282.0" y="347.0"/>
      <point x="282.0" y="448.0" type="qcurve" smooth="yes"/>
      <point x="282.0" y="460.0" type="line"/>
      <point x="90.0" y="460.0" type="line"/>
    </contour>
  </outline>
</glyph>
<glyph name="X" format="2">
  <advance width="1222"/>
  <unicode hex="0058"/>
  <outline>
    <contour>
      <point x="-25.0" y="0.0" type="line"/>
      <point x="287.0" y="0.0" type="line"/>
      <point x="709.0" y="670.0" type="line"/>
      <point x="723.0" y="670.0" type="line"/>
      <point x="1222.0" y="1456.0" type="line"/>
      <point x="910.0" y="1456.0" type="line"/>
      <point x="513.0" y="806.0" type="line"/>
      <point x="499.0" y="806.0" type="line"/>
    </contour>
    <contour>
      <point x="50.0" y="1456.0" type="line"/>
      <point x="549.0" y="670.0" type="line"/>
      <point x="559.0" y="670.0" type="line"/>
      <point x="981.0" y="0.0" type="line"/>
      <point x="1197.0" y="0.0" type="line"/>
      <point x="673.0" y="806.0" type="line"/>
      <point x="663.0" y="806.0" type="line"/>
      <point x="266.0" y="1456.0" type="line"/>
    </contour>
  </outline>
</glyph>
<glyph name="Y" format="2">
  <advance width="1227"/>
  <unicode hex="0059"/>
  <anchor x="597.0" y="1457.0" name="top"/>
  <outline>
    <contour>
      <point x="518" y="0" type="line"/>
      <point x="518" y="544" type="line"/>
      <point x="15" y="1456" type="line"/>
      <point x="231" y="1456" type="line"/>
      <point x="540" y="873" type="line" smooth="yes"/>
      <point x="547" y="859"/>
      <point x="556" y="843"/>
      <point x="559" y="832" type="qcurve"/>
      <point x="565" y="832" type="line"/>
      <point x="569" y="844"/>
      <point x="579" y="863"/>
      <point x="584" y="873" type="qcurve" smooth="yes"/>
      <point x="895" y="1456" type="line"/>
      <point x="1212" y="1456" type="line"/>
      <point x="710" y="543" type="line"/>
      <point x="710" y="0" type="line"/>
    </contour>
  </outline>
</glyph>
<glyph name="Z" format="2">
  <advance width="1131"/>
  <unicode hex="005A"/>
  <outline>
    <contour>
      <point x="36.0" y="0.0" type="line"/>
      <point x="1095.0" y="0.0" type="line"/>
      <point x="1095.0" y="270.0" type="line"/>
      <point x="315.0" y="270.0" type="line"/>
      <point x="1063.0" y="1264.0" type="line"/>
      <point x="1063.0" y="1456.0" type="line"/>
      <point x="48.0" y="1456.0" type="line"/>
      <point x="48.0" y="1186.0" type="line"/>
      <point x="774.0" y="1186.0" type="line"/>
      <point x="36.0" y="192.0" type="line"/>
    </contour>
  </outline>
</glyph>
<glyph name="asciicircum" format="2">
  <advance width="1170"/>
  <unicode hex="005E"/>
  <outline>
    <contour>
      <point x="25.0" y="720.0" type="line"/>
      <point x="500.0" y="1456.0" type="line"/>
      <point x="670.0" y="1456.0" type="line"/>
      <point x="1145.0" y="720.0" type="line"/>
      <point x="845.0" y="720.0" type="line"/>
      <point x="585.0" y="1290.0" type="line"/>
      <point x="325.0" y="720.0" type="line"/>
    </contour>
  </outline>
</glyph>
<glyph name="underscore" format="2">
  <advance width="1024"/>
  <unicode hex="005F"/>
  <outline>
    <contour>
      <point x="0.0" y="-416.0" type="line"/>
      <point x="0.0" y="-244.0" type="line"/>
      <point x="1024.0" y="-244.0" type="line"/>
      <point x="1024.0" y="-416.0" type="line"/>
    </contour>
  </outline>
</glyph>
<glyph name="a" format="2">
  <advance width="1106"/>
  <unicode hex="0061"/>
  <anchor x="563.0" y="1052.0" name="top"/>
  <outline>
    <contour>
      <point x="90.0" y="310.0" type="qcurve" smooth="yes"/>
      <point x="90.0" y="150.0"/>
      <point x="300.0" y="-20.0"/>
      <point x="450.0" y="-20.0" type="qcurve" smooth="yes"/>
      <point x="580.0" y="-20.0"/>
      <point x="745.0" y="76.9375718768227"/>
      <point x="782.0" y="145.0" type="qcurve"/>
      <point x="785.0" y="105.0"/>
      <point x="808.0" y="25.0"/>
      <point x="822.0" y="0.0" type="qcurve"/>
      <point x="1002.0" y="0.0" type="line"/>
      <point x="1002.0" y="16.0" type="line"/>
      <point x="984.0" y="60.0"/>
      <point x="964.0" y="175.0"/>
      <point x="964.0" y="240.0" type="qcurve" smooth="yes"/>
      <point x="964.0" y="720.0" type="line" smooth="yes"/>
      <point x="964.0" y="900.0"/>
      <point x="755.0" y="1082.0"/>
      <point x="565.0" y="1082.0" type="qcurve" smooth="yes"/>
      <point x="375.0" y="1082.0"/>
      <point x="152.0" y="883.0128205128206"/>
      <point x="152.0" y="750.0" type="qcurve" smooth="yes"/>
      <point x="152.0" y="745.0" type="line"/>
      <point x="337.0" y="745.0" type="line"/>
      <point x="337.0" y="750.0" type="line" smooth="yes"/>
      <point x="337.0" y="787.0555555555555"/>
      <point x="440.0" y="842.0"/>
      <point x="560.0" y="842.0" type="qcurve" smooth="yes"/>
      <point x="680.0" y="842.0"/>
      <point x="778.0" y="774.0"/>
      <point x="778.0" y="720.0" type="qcurve" smooth="yes"/>
      <point x="778.0" y="678.0" type="line"/>
      <point x="540.0" y="678.0" type="line" smooth="yes"/>
      <point x="344.0" y="678.0"/>
      <point x="90.0" y="484.0"/>
    </contour>
    <contour>
      <point x="276.0" y="320.0" type="qcurve" smooth="yes"/>
      <point x="276.0" y="383.3673469387755"/>
      <point x="420.0" y="458.0"/>
      <point x="560.0" y="458.0" type="qcurve" smooth="yes"/>
      <point x="778.0" y="458.0" type="line"/>
      <point x="778.0" y="415.0" type="line"/>
      <point x="778.0" y="344.8"/>
      <point x="600.0" y="220.0"/>
      <point x="490.0" y="220.0" type="qcurve" smooth="yes"/>
      <point x="380.0" y="220.0"/>
      <point x="276.0" y="273.125"/>
    </contour>
  </outline>
</glyph>
<glyph name="e" format="2">
  <advance width="1060"/>
  <unicode hex="0065"/>
  <anchor x="558.0" y="1053.0" name="top"/>
  <outline>
    <contour>
      <point x="85.0" y="510.0" type="line" smooth="yes"/>
      <point x="85.0" y="272.0"/>
      <point x="346.0" y="-30.0"/>
      <point x="591.0" y="-30.0" type="qcurve" smooth="yes"/>
      <point x="741.0" y="-30.0"/>
      <point x="950.0" y="100.0"/>
      <point x="1000.0" y="175.0" type="qcurve"/>
      <point x="880.0" y="271.0" type="line"/>
      <point x="831.0" y="256.0"/>
      <point x="684.0" y="221.0"/>
      <point x="581.0" y="221.0" type="qcurve" smooth="yes"/>
      <point x="422.0" y="221.0"/>
      <point x="275.0" y="388.0"/>
      <point x="275.0" y="510.0" type="qcurve" smooth="yes"/>
      <point x="275.0" y="542.0" type="line" smooth="yes"/>
      <point x="275.0" y="664.0"/>
      <point x="421.0" y="832.0"/>
      <point x="569" y="832.0" type="qcurve" smooth="yes"/>
      <point x="701.0" y="832.0"/>
      <point x="818.0" y="723"/>
      <point x="818.0" y="662.0" type="qcurve"/>
      <point x="818.0" y="662.0" type="line"/>
      <point x="199.0" y="662.0" type="line"/>
      <point x="199.0" y="422.0" type="line"/>
      <point x="1008.0" y="422.0" type="line"/>
      <point x="1008.0" y="560.0" type="line" smooth="yes"/>
      <point x="1008.0" y="800.0"/>
      <point x="776.0" y="1082.0"/>
      <point x="561.0" y="1082.0" type="qcurve" smooth="yes"/>
      <point x="346.0" y="1082.0"/>
      <point x="85.0" y="780.0"/>
      <point x="85.0" y="542.0" type="qcurve" smooth="yes"/>
    </contour>
  </outline>
</glyph>
<glyph name="j" format="2">
  <advance width="500"/>
  <unicode hex="006A"/>
  <outline>
    <contour>
      <point x="-94.0" y="-410.0" type="qcurve"/>
      <point x="-94.0" y="-156.0" type="line"/>
      <point x="-74.0" y="-162.0"/>
      <point x="0.0" y="-176.0"/>
      <point x="30.0" y="-176.0" type="qcurve" smooth="yes"/>
      <point x="90.0" y="-176.0"/>
      <point x="157.0" y="-106.0"/>
      <point x="157.0" y="-26.0" type="qcurve" smooth="yes"/>
      <point x="157.0" y="1052.0" type="line"/>
      <point x="343.0" y="1052.0" type="line"/>
      <point x="343.0" y="-90.0" type="line" smooth="yes"/>
      <point x="343.0" y="-270.0"/>
      <point x="204.0" y="-436.0"/>
      <point x="70.0" y="-436.0" type="qcurve" smooth="yes"/>
      <point x="30.0" y="-436.0"/>
      <point x="-69.0" y="-419.9777699821864"/>
    </contour>
    <contour>
      <point x="140.0" y="1300.0" type="qcurve" smooth="yes"/>
      <point x="140.0" y="1375.0"/>
      <point x="197.0" y="1476.0"/>
      <point x="250.0" y="1476.0" type="qcurve" smooth="yes"/>
      <point x="303.0" y="1476.0"/>
      <point x="360.0" y="1375.0"/>
      <point x="360.0" y="1300.0" type="qcurve" smooth="yes"/>
      <point x="360.0" y="1225.0"/>
      <point x="303.0" y="1124.0"/>
      <point x="250.0" y="1124.0" type="qcurve" smooth="yes"/>
      <point x="197.0" y="1124.0"/>
      <point x="140.0" y="1225.0"/>
    </contour>
  </outline>
</glyph>
<glyph name="m" format="2">
  <advance width="1764"/>
  <unicode hex="006D"/>
  <outline>
    <contour>
      <point x="148.0" y="0.0" type="line"/>
      <point x="334.0" y="0.0" type="line"/>
      <point x="334.0" y="630.0" type="line"/>
      <point x="372.0" y="706.0"/>
      <point x="501.0" y="802.0"/>
      <point x="587.0" y="802.0" type="qcurve" smooth="yes"/>
      <point x="686.0" y="802.0"/>
      <point x="794.0" y="693.0"/>
      <point x="794.0" y="567.0" type="qcurve" smooth="yes"/>
      <point x="794.0" y="0.0" type="line"/>
      <point x="980.0" y="0.0" type="line"/>
      <point x="980.0" y="630.0" type="line"/>
      <point x="1018.0" y="706.0"/>
      <point x="1147.0" y="802.0"/>
      <point x="1233.0" y="802.0" type="qcurve" smooth="yes"/>
      <point x="1332.0" y="802.0"/>
      <point x="1440.0" y="693.0"/>
      <point x="1440.0" y="567.0" type="qcurve" smooth="yes"/>
      <point x="1440.0" y="0.0" type="line"/>
      <point x="1626.0" y="0.0" type="line"/>
      <point x="1626.0" y="565.0" type="line" smooth="yes"/>
      <point x="1626.0" y="838.0"/>
      <point x="1442.0" y="1072.0"/>
      <point x="1278.0" y="1072.0" type="qcurve" smooth="yes"/>
      <point x="1174.0" y="1072.0"/>
      <point x="1014.0" y="982.0"/>
      <point x="948.0" y="874.0" type="qcurve"/>
      <point x="942.0" y="874.0" type="line"/>
      <point x="902.0" y="970.0"/>
      <point x="748.0" y="1072.0"/>
      <point x="642.0" y="1072.0" type="qcurve" smooth="yes"/>
      <point x="545.0" y="1072.0"/>
      <point x="386.0" y="992.0"/>
      <point x="330.0" y="917.0" type="qcurve"/>
      <point x="324.0" y="917.0" type="line"/>
      <point x="316.0" y="1052.0" type="line"/>
      <point x="148.0" y="1052.0" type="line"/>
    </contour>
  </outline>
</glyph>
<glyph name="r" format="2">
  <advance width="700"/>
  <unicode hex="0072"/>
  <outline>
    <contour>
      <point x="148.0" y="0.0" type="line"/>
      <point x="334.0" y="0.0" type="line"/>
      <point x="334.0" y="598.0" type="line"/>
      <point x="364.0" y="668.0"/>
      <point x="490.0" y="762.0"/>
      <point x="580.0" y="762.0" type="qcurve" smooth="yes"/>
      <point x="606.0" y="762.0"/>
      <point x="650.0" y="758.0"/>
      <point x="670.0" y="754.0" type="qcurve"/>
      <point x="670.0" y="1068.0" type="line"/>
      <point x="660.0" y="1072.0"/>
      <point x="612.0" y="1082.0"/>
      <point x="590.0" y="1082.0" type="qcurve" smooth="yes"/>
      <point x="500.0" y="1082.0"/>
      <point x="370.0" y="983.0"/>
      <point x="330.0" y="917.0" type="qcurve"/>
      <point x="324.0" y="917.0" type="line"/>
      <point x="316.0" y="1052.0" type="line"/>
      <point x="148.0" y="1052.0" type="line"/>
    </contour>
  </outline>
</glyph>
<glyph name="u" format="2">
  <advance width="1138"/>
  <unicode hex="0075"/>
  <anchor x="564.0" y="1052.0" name="top"/>
  <outline>
    <contour>
      <point x="138.0" y="487.0" type="line" smooth="yes"/>
      <point x="138.0" y="213.0"/>
      <point x="327.0" y="-20.0"/>
      <point x="486.0" y="-20.0" type="qcurve" smooth="yes"/>
      <point x="586.0" y="-20.0"/>
      <point x="751.0" y="59.0"/>
      <point x="808.0" y="135.0" type="qcurve"/>
      <point x="814.0" y="135.0" type="line"/>
      <point x="822.0" y="0.0" type="line"/>
      <point x="990.0" y="0.0" type="line"/>
      <point x="990.0" y="1052.0" type="line"/>
      <point x="804.0" y="1052.0" type="line"/>
      <point x="804.0" y="422.0" type="line"/>
      <point x="766.0" y="346.0"/>
      <point x="630.0" y="250.0"/>
      <point x="541.0" y="250.0" type="qcurve" smooth="yes"/>
      <point x="437.0" y="250.0"/>
      <point x="324.0" y="359.0"/>
      <point x="324.0" y="485.0" type="qcurve" smooth="yes"/>
      <point x="324.0" y="1052.0" type="line"/>
      <point x="138.0" y="1052.0" type="line"/>
    </contour>
  </outline>
</glyph>
<glyph name="w" format="2">
  <advance width="1546"/>
  <unicode hex="0077"/>
  <outline>
    <contour>
      <point x="25.0" y="1052.0" type="line"/>
      <point x="205.0" y="1052.0" type="line"/>
      <point x="395.0" y="460.0" type="line" smooth="yes"/>
      <point x="406.0" y="420.0"/>
      <point x="427.0" y="340.0"/>
      <point x="431.0" y="300.0" type="qcurve"/>
      <point x="437.0" y="300.0" type="line"/>
      <point x="441.0" y="340.0"/>
      <point x="460.0" y="420.0"/>
      <point x="473.0" y="460.0" type="qcurve" smooth="yes"/>
      <point x="700.0" y="1052.0" type="line"/>
      <point x="856.0" y="1052.0" type="line"/>
      <point x="1083.0" y="460.0" type="line" smooth="yes"/>
      <point x="1096.0" y="420.0"/>
      <point x="1115.0" y="340.0"/>
      <point x="1119.0" y="300.0" type="qcurve"/>
      <point x="1125.0" y="300.0" type="line"/>
      <point x="1129.0" y="340.0"/>
      <point x="1150.0" y="420.0"/>
      <point x="1161.0" y="460.0" type="qcurve" smooth="yes"/>
      <point x="1351.0" y="1052.0" type="line"/>
      <point x="1521.0" y="1052.0" type="line"/>
      <point x="1196.0" y="0.0" type="line"/>
      <point x="1051.0" y="0.0" type="line"/>
      <point x="822.0" y="593.0" type="line" smooth="yes"/>
      <point x="809.0" y="633.0"/>
      <point x="786.0" y="713.0"/>
      <point x="776.0" y="753.0" type="qcurve"/>
      <point x="770.0" y="753.0" type="line"/>
      <point x="760.0" y="713.0"/>
      <point x="737.0" y="633.0"/>
      <point x="724.0" y="593.0" type="qcurve" smooth="yes"/>
      <point x="495.0" y="0.0" type="line"/>
      <point x="350.0" y="0.0" type="line"/>
    </contour>
  </outline>
</glyph>
<glyph name="x" format="2">
  <advance width="978"/>
  <unicode hex="0078"/>
  <outline>
    <contour>
      <point x="-5.0" y="0.0" type="line"/>
      <point x="265.0" y="0.0" type="line"/>
      <point x="582.0" y="484.0" type="line"/>
      <point x="583.0" y="484.0" type="line"/>
      <point x="963.0" y="1052.0" type="line"/>
      <point x="693.0" y="1052.0" type="line"/>
      <point x="396.0" y="582.0" type="line"/>
      <point x="395.0" y="582.0" type="line"/>
    </contour>
    <contour>
      <point x="40.0" y="1052.0" type="line"/>
      <point x="420.0" y="484.0" type="line"/>
      <point x="428.0" y="484.0" type="line"/>
      <point x="745.0" y="0.0" type="line"/>
      <point x="958.0" y="0.0" type="line"/>
      <point x="558.0" y="582.0" type="line"/>
      <point x="550.0" y="582.0" type="line"/>
      <point x="253.0" y="1052.0" type="line"/>
    </contour>
  </outline>
</glyph>
<glyph name="y" format="2">
  <advance width="942"/>
  <unicode hex="0079"/>
  <anchor x="480.0" y="1052.0" name="top"/>
  <outline>
    <contour>
      <point x="50.0" y="-416.0" type="line"/>
      <point x="78.0" y="-428.0"/>
      <point x="140.0" y="-436.0"/>
      <point x="180.0" y="-436.0" type="qcurve" smooth="yes"/>
      <point x="300.0" y="-436.0"/>
      <point x="465.0" y="-287.0"/>
      <point x="515.0" y="-140.0" type="qcurve" smooth="yes"/>
      <point x="942.0" y="1052.0" type="line"/>
      <point x="766.0" y="1052.0" type="line"/>
      <point x="528.0" y="460.0" type="line" smooth="yes"/>
      <point x="514.0" y="420.0"/>
      <point x="494.0" y="340.0"/>
      <point x="490.0" y="300.0" type="qcurve"/>
      <point x="484.0" y="300.0" type="line"/>
      <point x="480.0" y="340.0"/>
      <point x="461.0" y="420.0"/>
      <point x="446.0" y="460.0" type="qcurve" smooth="yes"/>
      <point x="190.0" y="1052.0" type="line"/>
      <point x="10.0" y="1052.0" type="line"/>
      <point x="404.0" y="10.0" type="line"/>
      <point x="365.0" y="0.0" type="line" smooth="yes"/>
      <point x="330.0" y="-103.0"/>
      <point x="240.0" y="-176.0"/>
      <point x="170.0" y="-176.0" type="qcurve" smooth="yes"/>
      <point x="140.0" y="-176.0"/>
      <point x="76.0" y="-167.0"/>
      <point x="50.0" y="-158.0" type="qcurve"/>
    </contour>
  </outline>
</glyph>
<glyph name="z" format="2">
  <advance width="992"/>
  <unicode hex="007A"/>
  <outline>
    <contour>
      <point x="70.0" y="0.0" type="line"/>
      <point x="928.0" y="0.0" type="line"/>
      <point x="928.0" y="270.0" type="line"/>
      <point x="292.0" y="270.0" type="line"/>
      <point x="898.0" y="802.0" type="line"/>
      <point x="898.0" y="1052.0" type="line"/>
      <point x="78.0" y="1052.0" type="line"/>
      <point x="78.0" y="782.0" type="line"/>
      <point x="674.0" y="782.0" type="line"/>
      <point x="70.0" y="250.0" type="line"/>
    </contour>
  </outline>
</glyph>
<glyph name="sterling" format="2">
  <advance width="1024"/>
  <unicode hex="00A3"/>
  <outline>
    <contour>
      <point x="1028.0" y="0.0" type="line"/>
      <point x="1028.0" y="266.0" type="line"/>
      <point x="322.0" y="266.0" type="line"/>
      <point x="392.0" y="307.0"/>
      <point x="442" y="420"/>
      <point x="434.0" y="508.0" type="qcurve" smooth="yes"/>
      <point x="383.0" y="1039.0" type="line" smooth="yes"/>
      <point x="377" y="1105"/>
      <point x="475" y="1229"/>
      <point x="582.0" y="1229.0" type="qcurve" smooth="yes"/>
      <point x="674" y="1229"/>
      <point x="792.0" y="1139.0"/>
      <point x="792.0" y="1104.0" type="qcurve" smooth="yes"/>
      <point x="792.0" y="1087.0" type="line"/>
      <point x="984.0" y="1087.0" type="line"/>
      <point x="984.0" y="1103.0" type="line" smooth="yes"/>
      <point x="984.0" y="1270.0"/>
      <point x="771.0" y="1476.0"/>
      <point x="581.0" y="1476.0" type="qcurve" smooth="yes"/>
      <point x="380.0" y="1476.0"/>
      <point x="177.0" y="1228.0"/>
      <point x="195.0" y="1039.0" type="qcurve" smooth="yes"/>
      <point x="250.0" y="467.0" type="line" smooth="yes"/>
      <point x="260" y="368"/>
      <point x="183" y="260.0"/>
      <point x="91.0" y="260.0" type="qcurve" smooth="yes"/>
      <point x="36.0" y="260.0" type="line"/>
      <point x="36.0" y="0.0" type="line"/>
    </contour>
    <contour>
      <point x="824.0" y="625.0" type="line"/>
      <point x="824.0" y="780.0" type="line"/>
      <point x="52.0" y="780.0" type="line"/>
      <point x="52.0" y="625.0" type="line"/>
    </contour>
  </outline>
</glyph>
<glyph name="yen" format="2">
  <advance width="1056"/>
  <unicode hex="00A5"/>
  <anchor x="522.0" y="1457.0" name="top"/>
  <outline>
    <contour>
      <point x="59.0" y="250.0" type="line"/>
      <point x="59.0" y="480.0" type="line"/>
      <point x="1005.0" y="480.0" type="line"/>
      <point x="1005.0" y="250.0" type="line"/>
    </contour>
    <contour>
      <point x="59.0" y="560.0" type="line"/>
      <point x="59.0" y="785.0" type="line"/>
      <point x="425.0" y="785.0" type="line"/>
      <point x="478.0" y="669.0" type="line"/>
      <point x="587.0" y="669.0" type="line"/>
      <point x="635.0" y="785.0" type="line"/>
      <point x="1005.0" y="785.0" type="line"/>
      <point x="1005.0" y="560.0" type="line"/>
    </contour>
    <contour>
      <point x="436.0" y="0.0" type="line"/>
      <point x="436.0" y="548.0" type="line"/>
      <point x="-19.0" y="1456.0" type="line"/>
      <point x="190.0" y="1456.0" type="line"/>
      <point x="466.0" y="849.0" type="line" smooth="yes"/>
      <point x="480.0" y="819.0"/>
      <point x="509.0" y="766.0"/>
      <point x="516.0" y="729.0" type="qcurve"/>
      <point x="530.0" y="729.0" type="line"/>
      <point x="537.0" y="776.0"/>
      <point x="550" y="819"/>
      <point x="564.0" y="849.0" type="qcurve" smooth="yes"/>
      <point x="844.0" y="1456.0" type="line"/>
      <point x="1115.0" y="1456.0" type="line"/>
      <point x="620.0" y="477.0" type="line"/>
      <point x="620.0" y="0.0" type="line"/>
    </contour>
  </outline>
</glyph>
<glyph name="ordfeminine" format="2">
  <advance width="916"/>
  <unicode hex="00AA"/>
  <guideline x="0" y="1681.0" angle="0" identifier="3CJlALCfkl"/>
  <guideline x="0" y="909.0" angle="0" identifier="Zdl6NZVQAy"/>
  <outline>
    <contour>
      <point x="606.0" y="862.0" type="line"/>
      <point x="606.0" y="821.0"/>
      <point x="626.0" y="736.0"/>
      <point x="649.0" y="706.0" type="qcurve"/>
      <point x="784.0" y="706.0" type="line"/>
      <point x="770.0" y="749.0"/>
      <point x="758.0" y="838.0"/>
      <point x="758.0" y="887.0" type="qcurve" smooth="yes"/>
      <point x="758.0" y="1201.0" type="line" smooth="yes"/>
      <point x="758.0" y="1338.0"/>
      <point x="599.0" y="1477.0"/>
      <point x="464.0" y="1477.0" type="qcurve" smooth="yes"/>
      <point x="337.0" y="1477.0"/>
      <point x="165.0" y="1356.0"/>
      <point x="165.0" y="1261.0" type="qcurve" smooth="yes"/>
      <point x="165.0" y="1234.0" type="line"/>
      <point x="320.0" y="1234.0" type="line"/>
      <point x="320.0" y="1247.0" type="line" smooth="yes"/>
      <point x="320.0" y="1262.0"/>
      <point x="395.0" y="1286.0"/>
      <point x="466.0" y="1286.0" type="qcurve" smooth="yes"/>
      <point x="533.0" y="1286.0"/>
      <point x="606.0" y="1236.0"/>
      <point x="606.0" y="1162.0" type="qcurve" smooth="yes"/>
    </contour>
    <contour>
      <point x="635.0" y="1169.0" type="line"/>
      <point x="477.0" y="1169.0" type="line" smooth="yes"/>
      <point x="300" y="1169.0"/>
      <point x="141.0" y="1028.0"/>
      <point x="141.0" y="918.0" type="qcurve" smooth="yes"/>
      <point x="141.0" y="816.0"/>
      <point x="268.0" y="692.0"/>
      <point x="387.0" y="692.0" type="qcurve" smooth="yes"/>
      <point x="488.0" y="692.0"/>
      <point x="619.0" y="788.0"/>
      <point x="641.0" y="837.0" type="qcurve"/>
      <point x="623.0" y="989.0" type="line"/>
      <point x="612.0" y="956.0"/>
      <point x="490.0" y="882.0"/>
      <point x="413" y="882" type="qcurve" smooth="yes"/>
      <point x="362.0" y="882.0"/>
      <point x="298" y="902"/>
      <point x="298.0" y="938" type="qcurve" smooth="yes"/>
      <point x="298" y="968"/>
      <point x="388" y="1006"/>
      <point x="478.0" y="1012.0" type="qcurve" smooth="yes"/>
      <point x="635.0" y="1012.0" type="line"/>
    </contour>
  </outline>
</glyph>
<glyph name="twosuperior" format="2">
  <advance width="751"/>
  <unicode hex="00B2"/>
  <outline>
    <contour>
      <point x="85.0" y="697.0" type="line"/>
      <point x="683.0" y="697.0" type="line"/>
      <point x="683.0" y="903.0" type="line"/>
      <point x="402.0" y="905.0" type="line"/>
      <point x="468.0" y="971.0" type="line" smooth="yes"/>
      <point x="551" y="1054"/>
      <point x="652.0" y="1171.0"/>
      <point x="652.0" y="1251.0" type="qcurve" smooth="yes"/>
      <point x="652.0" y="1359.0"/>
      <point x="500.0" y="1487.0"/>
      <point x="366.0" y="1487.0" type="qcurve" smooth="yes"/>
      <point x="224.0" y="1487.0"/>
      <point x="66.0" y="1329.0"/>
      <point x="67.0" y="1198.0" type="qcurve"/>
      <point x="235.0" y="1198.0" type="line"/>
      <point x="234.0" y="1243.0"/>
      <point x="305.0" y="1287.0"/>
      <point x="370.0" y="1287.0" type="qcurve" smooth="yes"/>
      <point x="429.0" y="1287.0"/>
      <point x="481.0" y="1247.0"/>
      <point x="481.0" y="1220" type="qcurve" smooth="yes"/>
      <point x="481" y="1206"/>
      <point x="441.0" y="1127.0"/>
      <point x="373.0" y="1066.0" type="qcurve" smooth="yes"/>
      <point x="85.0" y="805.0" type="line"/>
    </contour>
  </outline>
</glyph>
<glyph name="threesuperior" format="2">
  <advance width="751"/>
  <unicode hex="00B3"/>
  <outline>
    <contour>
      <point x="63.0" y="940.0" type="line"/>
      <point x="63.0" y="791"/>
      <point x="248.0" y="686.0"/>
      <point x="361.0" y="686.0" type="qcurve" smooth="yes"/>
      <point x="491.0" y="686.0"/>
      <point x="667.0" y="807"/>
      <point x="667.0" y="949.0" type="qcurve" smooth="yes"/>
      <point x="667" y="983"/>
      <point x="601.0" y="1075.0"/>
      <point x="533.0" y="1098.0" type="qcurve"/>
      <point x="593.0" y="1120.0"/>
      <point x="656.0" y="1212.0"/>
      <point x="656.0" y="1263.0" type="qcurve" smooth="yes"/>
      <point x="656.0" y="1372.0"/>
      <point x="490.0" y="1487.0"/>
      <point x="360.0" y="1487.0" type="qcurve" smooth="yes"/>
      <point x="241.0" y="1487.0"/>
      <point x="74.0" y="1353"/>
      <point x="74.0" y="1226.0" type="qcurve"/>
      <point x="231.0" y="1226.0" type="line"/>
      <point x="231.0" y="1259.0"/>
      <point x="306" y="1289"/>
      <point x="363.0" y="1289.0" type="qcurve" smooth="yes"/>
      <point x="442.0" y="1289.0"/>
      <point x="486" y="1259"/>
      <point x="486.0" y="1229" type="qcurve" smooth="yes"/>
      <point x="486.0" y="1199.0"/>
      <point x="441.0" y="1172.0"/>
      <point x="350.0" y="1172.0" type="qcurve" smooth="yes"/>
      <point x="266.0" y="1172.0" type="line"/>
      <point x="266.0" y="999.0" type="line"/>
      <point x="350.0" y="999.0" type="line" smooth="yes"/>
      <point x="431" y="999.0"/>
      <point x="499" y="969"/>
      <point x="499.0" y="943" type="qcurve" smooth="yes"/>
      <point x="499" y="913"/>
      <point x="453" y="874.0"/>
      <point x="366.0" y="874.0" type="qcurve" smooth="yes"/>
      <point x="300" y="874"/>
      <point x="220.0" y="905.0"/>
      <point x="220.0" y="940.0" type="qcurve"/>
    </contour>
  </outline>
</glyph>
<glyph name="cedilla" format="2">
  <advance width="1024"/>
  <unicode hex="00B8"/>
  <outline>
    <contour>
      <point x="440.0" y="42.0" type="line"/>
      <point x="399.0" y="-202.0" type="line"/>
      <point x="483.0" y="-205"/>
      <point x="542.0" y="-218"/>
      <point x="542.0" y="-236" type="qcurve" smooth="yes"/>
      <point x="542.0" y="-256"/>
      <point x="463.0" y="-273"/>
      <point x="341.0" y="-273" type="qcurve"/>
      <point x="348.0" y="-435.0" type="line"/>
      <point x="550.0" y="-435.0"/>
      <point x="723" y="-319"/>
      <point x="724.0" y="-226.0" type="qcurve" smooth="yes"/>
      <point x="725.0" y="-125.0"/>
      <point x="605.0" y="-42.0"/>
      <point x="548.0" y="-32.0" type="qcurve"/>
      <point x="569.0" y="42.0" type="line"/>
    </contour>
  </outline>
</glyph>
<glyph name="ordmasculine" format="2">
  <advance width="932"/>
  <unicode hex="00BA"/>
  <guideline x="0" y="1975.0" angle="0" identifier="Jnt0R9CyOf"/>
  <outline>
    <contour>
      <point x="121.0" y="1070.0" type="line"/>
      <point x="121.0" y="889"/>
      <point x="308.7910447761194" y="691.0"/>
      <point x="467.0" y="691.0" type="qcurve" smooth="yes"/>
      <point x="623.7164179104477" y="691.0"/>
      <point x="805.0" y="889"/>
      <point x="805.0" y="1070.0" type="qcurve"/>
      <point x="805.0" y="1101.0" type="line"/>
      <point x="807.0" y="1278"/>
      <point x="623.2089552238806" y="1477.0"/>
      <point x="465.0" y="1477.0" type="qcurve" smooth="yes"/>
      <point x="308.2835820895523" y="1477.0"/>
      <point x="123.0" y="1278"/>
      <point x="121.0" y="1101.0" type="qcurve"/>
    </contour>
    <contour>
      <point x="286.0" y="1084.0" type="line"/>
      <point x="286.0" y="1153"/>
      <point x="375" y="1256.0"/>
      <point x="465.0" y="1256.0" type="qcurve" smooth="yes"/>
      <point x="555" y="1256.0"/>
      <point x="645.0" y="1153"/>
      <point x="645.0" y="1084.0" type="qcurve"/>
      <point x="645.0" y="1081.0" type="line"/>
      <point x="645.0" y="1010"/>
      <point x="556" y="908.0"/>
      <point x="467.0" y="908.0" type="qcurve" smooth="yes"/>
      <point x="375" y="908.0"/>
      <point x="286.0" y="1010"/>
      <point x="286.0" y="1081.0" type="qcurve"/>
    </contour>
  </outline>
</glyph>
<glyph name="ae" format="2">
  <advance width="1748"/>
  <unicode hex="00E6"/>
  <anchor x="870.0" y="1291.0" name="top"/>
  <anchor x="563.0" y="1052.0" name="top"/>
  <anchor x="1246.0" y="1053.0" name="top"/>
  <anchor x="1741.0" y="1600.0" name="top_dd"/>
  <anchor x="1741.0" y="1291.0" name="top0315"/>
  <anchor x="870.0" y="1291.0" name="parent_top"/>
  <outline>
    <contour>
      <point x="276.0" y="320.0" type="qcurve" smooth="yes"/>
      <point x="276" y="270"/>
      <point x="380.0" y="218.0"/>
      <point x="490.0" y="218.0" type="qcurve" smooth="yes"/>
      <point x="600.0" y="218.0"/>
      <point x="778.0" y="340.0"/>
      <point x="778.0" y="415.0" type="qcurve"/>
      <point x="778.0" y="458.0" type="line"/>
      <point x="560.0" y="458.0" type="line" smooth="yes"/>
      <point x="420" y="458"/>
      <point x="276" y="380"/>
    </contour>
    <contour>
      <point x="90.0" y="300.0" type="qcurve" smooth="yes"/>
      <point x="90.0" y="490.0"/>
      <point x="344" y="678"/>
      <point x="540.0" y="678.0" type="qcurve" smooth="yes"/>
      <point x="778.0" y="678.0" type="line"/>
      <point x="778.0" y="699.0" type="line" smooth="yes"/>
      <point x="778" y="764"/>
      <point x="680.0" y="843.0"/>
      <point x="560.0" y="843.0" type="qcurve" smooth="yes"/>
      <point x="440.0" y="843.0"/>
      <point x="337.0" y="784.0"/>
      <point x="337.0" y="749.0" type="qcurve" smooth="yes"/>
      <point x="337.0" y="744.0" type="line"/>
      <point x="152.0" y="744.0" type="line"/>
      <point x="152.0" y="749.0" type="line" smooth="yes"/>
      <point x="152" y="874"/>
      <point x="375.0" y="1082.0"/>
      <point x="565.0" y="1082.0" type="qcurve" smooth="yes"/>
      <point x="729.0" y="1082.0"/>
      <point x="901.0" y="949.0"/>
      <point x="911.0" y="872.0" type="qcurve"/>
      <point x="931.0" y="950.0"/>
      <point x="1099.0" y="1082.0"/>
      <point x="1245.0" y="1082.0" type="qcurve" smooth="yes"/>
      <point x="1460.0" y="1082.0"/>
      <point x="1692.0" y="800.0"/>
      <point x="1692.0" y="560.0" type="qcurve" smooth="yes"/>
      <point x="1692.0" y="424.0" type="line"/>
      <point x="883.0" y="424.0" type="line"/>
      <point x="883.0" y="662.0" type="line"/>
      <point x="1504.0" y="662.0" type="line"/>
      <point x="1504.0" y="665.0" type="line"/>
      <point x="1504.0" y="717"/>
      <point x="1388" y="832.0"/>
      <point x="1249" y="832.0" type="qcurve" smooth="yes"/>
      <point x="1108" y="832"/>
      <point x="959.0" y="665.0"/>
      <point x="959.0" y="542.0" type="qcurve" smooth="yes"/>
      <point x="959.0" y="510.0" type="line" smooth="yes"/>
      <point x="959.0" y="388.0"/>
      <point x="1113.0" y="222.0"/>
      <point x="1275.0" y="222.0" type="qcurve" smooth="yes"/>
      <point x="1375.0" y="222.0"/>
      <point x="1520.0" y="256.0"/>
      <point x="1564.0" y="270.0" type="qcurve"/>
      <point x="1684.0" y="175.0" type="line"/>
      <point x="1634.0" y="100.0"/>
      <point x="1425.0" y="-30.0"/>
      <point x="1275.0" y="-30.0" type="qcurve" smooth="yes"/>
      <point x="1129.0" y="-30.0"/>
      <point x="897.0" y="90.0"/>
      <point x="843.0" y="213.0" type="qcurve"/>
      <point x="802.0" y="99.0"/>
      <point x="602.0" y="-20.0"/>
      <point x="450.0" y="-20.0" type="qcurve" smooth="yes"/>
      <point x="300.0" y="-20.0"/>
      <point x="90" y="150"/>
    </contour>
  </outline>
</glyph>
<glyph name="thorn" format="2">
  <advance width="1170"/>
  <unicode hex="00FE"/>
  <outline>
    <contour>
      <point x="148.0" y="-416.0" type="line"/>
      <point x="333.0" y="-416.0" type="line"/>
      <point x="341.0" y="117.0" type="line"/>
      <point x="345.0" y="117.0" type="line"/>
      <point x="385.0" y="57.0"/>
      <point x="535.0" y="-20.0"/>
      <point x="645.0" y="-20.0" type="qcurve" smooth="yes"/>
      <point x="845.0" y="-20.0"/>
      <point x="1085.0" y="280.0"/>
      <point x="1085.0" y="510.0" type="qcurve" smooth="yes"/>
      <point x="1085.0" y="542.0" type="line" smooth="yes"/>
      <point x="1085.0" y="772.0"/>
      <point x="845.0" y="1072.0"/>
      <point x="645.0" y="1072.0" type="qcurve" smooth="yes"/>
      <point x="535.0" y="1072.0"/>
      <point x="380.0" y="993.0"/>
      <point x="334.0" y="928.0" type="qcurve"/>
      <point x="334.0" y="1536.0" type="line"/>
      <point x="148.0" y="1536.0" type="line"/>
    </contour>
    <contour>
      <point x="334.0" y="376" type="qcurve"/>
      <point x="334.0" y="675" type="line"/>
      <point x="365.0" y="724"/>
      <point x="505.0" y="801"/>
      <point x="605.0" y="801" type="qcurve" smooth="yes"/>
      <point x="755.0" y="801"/>
      <point x="895.0" y="649"/>
      <point x="895.0" y="537" type="qcurve" smooth="yes"/>
      <point x="895.0" y="515" type="line" smooth="yes"/>
      <point x="895.0" y="403"/>
      <point x="755.0" y="250"/>
      <point x="605.0" y="250" type="qcurve" smooth="yes"/>
      <point x="505.0" y="250"/>
      <point x="365.0" y="327"/>
    </contour>
  </outline>
</glyph>
<glyph name="OE" format="2">
  <advance width="1879"/>
  <unicode hex="0152"/>
  <anchor x="963.0" y="1603.0" name="top"/>
  <anchor x="963.0" y="0" name="bottom"/>
  <anchor x="1963.0" y="1600.0" name="top_dd"/>
  <anchor x="1963.0" y="-407.0" name="bottom_dd"/>
  <anchor x="1963.0" y="1603.0" name="top0315"/>
  <anchor x="963.0" y="1603.0" name="parent_top"/>
  <outline>
    <contour>
      <point x="713.0" y="1477.0" type="qcurve" smooth="yes"/>
      <point x="746.0" y="1477.0"/>
      <point x="897.0" y="1464.0"/>
      <point x="964.0" y="1456.0" type="qcurve"/>
      <point x="1801.0" y="1456.0" type="line"/>
      <point x="1801.0" y="1184.0" type="line"/>
      <point x="1079.0" y="1184.0" type="line"/>
      <point x="1079.0" y="884.0" type="line"/>
      <point x="1709.0" y="884.0" type="line"/>
      <point x="1709.0" y="616.0" type="line"/>
      <point x="1079.0" y="616.0" type="line"/>
      <point x="1079.0" y="269.0" type="line"/>
      <point x="1811.0" y="269.0" type="line"/>
      <point x="1811.0" y="0.0" type="line"/>
      <point x="964.0" y="0.0" type="line"/>
      <point x="897.0" y="-7.0"/>
      <point x="748.0" y="-21.0"/>
      <point x="672.0" y="-21.0" type="qcurve" smooth="yes"/>
      <point x="458.0" y="-21.0"/>
      <point x="115.0" y="340.0"/>
      <point x="115.0" y="682.0" type="qcurve" smooth="yes"/>
      <point x="115.0" y="772.0" type="line" smooth="yes"/>
      <point x="115.0" y="1105.0"/>
      <point x="455.0" y="1477.0"/>
    </contour>
    <contour>
      <point x="310.0" y="697" type="line" smooth="yes"/>
      <point x="310.0" y="484"/>
      <point x="543.0" y="250"/>
      <point x="715.0" y="250" type="qcurve" smooth="yes"/>
      <point x="768.0" y="250"/>
      <point x="848.0" y="257"/>
      <point x="886.0" y="263" type="qcurve"/>
      <point x="886.0" y="1203" type="line"/>
      <point x="834.0" y="1208"/>
      <point x="739.0" y="1215"/>
      <point x="717.0" y="1215" type="qcurve" smooth="yes"/>
      <point x="540.0" y="1215"/>
      <point x="310.0" y="977"/>
      <point x="310.0" y="770" type="qcurve" smooth="yes"/>
    </contour>
  </outline>
</glyph>
<glyph name="Schwa" format="2">
  <advance width="1446"/>
  <unicode hex="018F"/>
  <outline>
    <contour>
      <point x="64.0" y="1199.0" type="line"/>
      <point x="162.0" y="1356.0"/>
      <point x="452.0" y="1519.0"/>
      <point x="669.0" y="1519.0" type="qcurve" smooth="yes"/>
      <point x="1002.0" y="1519.0"/>
      <point x="1366.0" y="1094.0"/>
      <point x="1366.0" y="789.0" type="qcurve" smooth="yes"/>
      <point x="1366.0" y="445.0"/>
      <point x="982.0" y="-30.0"/>
      <point x="692.0" y="-30.0" type="qcurve" smooth="yes"/>
      <point x="416.0" y="-30.0"/>
      <point x="102.0" y="281.0"/>
      <point x="102.0" y="578.0" type="qcurve" smooth="yes"/>
      <point x="102.0" y="736.0" type="line"/>
      <point x="1228.0" y="736.0" type="line"/>
      <point x="1228.0" y="504.0" type="line"/>
      <point x="665.0" y="512.0" type="line"/>
      <point x="298.0" y="506.0" type="line"/>
      <point x="298.0" y="481.0" type="line" smooth="yes"/>
      <point x="298.0" y="345"/>
      <point x="503.0" y="197.0"/>
      <point x="702.0" y="197.0" type="qcurve" smooth="yes"/>
      <point x="912.0" y="197.0"/>
      <point x="1177" y="462"/>
      <point x="1175.0" y="749.0" type="qcurve" smooth="yes"/>
      <point x="1173" y="1005"/>
      <point x="872" y="1284.0"/>
      <point x="694" y="1284.0" type="qcurve" smooth="yes"/>
      <point x="546" y="1284"/>
      <point x="331.0" y="1143.0"/>
      <point x="270.0" y="1035.0" type="qcurve"/>
    </contour>
  </outline>
</glyph>
<glyph name="schwa" format="2">
  <advance width="1060"/>
  <unicode hex="0259"/>
  <anchor x="535.0" y="-1.0" name="top"/>
  <outline>
    <contour>
      <point x="975.0" y="542.0" type="qcurve" smooth="yes"/>
      <point x="975.0" y="510.0" type="line" smooth="yes"/>
      <point x="975.0" y="272.0"/>
      <point x="714.0" y="-30.0"/>
      <point x="499.0" y="-30.0" type="qcurve" smooth="yes"/>
      <point x="284.0" y="-30.0"/>
      <point x="52" y="252"/>
      <point x="52.0" y="492.0" type="qcurve" smooth="yes"/>
      <point x="52.0" y="618.0" type="line"/>
      <point x="861.0" y="618.0" type="line"/>
      <point x="861.0" y="370.0" type="line"/>
      <point x="240.0" y="370.0" type="line"/>
      <point x="239.0" y="366.0" type="line"/>
      <point x="239.0" y="299"/>
      <point x="369.0" y="222.0"/>
      <point x="491.0" y="222.0" type="qcurve" smooth="yes"/>
      <point x="639.0" y="222.0"/>
      <point x="785.0" y="367.0"/>
      <point x="785.0" y="510.0" type="qcurve" smooth="yes"/>
      <point x="785.0" y="542.0" type="line" smooth="yes"/>
      <point x="785.0" y="705.0"/>
      <point x="631.0" y="840.0"/>
      <point x="469.0" y="840.0" type="qcurve" smooth="yes"/>
      <point x="369.0" y="840.0"/>
      <point x="238.0" y="802.0"/>
      <point x="180.0" y="782.0" type="qcurve"/>
      <point x="60.0" y="877.0" type="line"/>
      <point x="110.0" y="952.0"/>
      <point x="319.0" y="1082.0"/>
      <point x="469.0" y="1082.0" type="qcurve" smooth="yes"/>
      <point x="714.0" y="1082.0"/>
      <point x="975.0" y="780.0"/>
    </contour>
  </outline>
</glyph>
<glyph name="primemod" format="2">
  <advance width="600"/>
  <unicode hex="02B9"/>
  <outline>
    <contour>
      <point x="224.0" y="1502.0" type="line"/>
      <point x="413.0" y="1502.0" type="line"/>
      <point x="334.0" y="991.0" type="line"/>
      <point x="152.0" y="996.0" type="line"/>
    </contour>
  </outline>
</glyph>
<glyph name="doubleprimemod" format="2">
  <advance width="788"/>
  <unicode hex="02BA"/>
  <outline>
    <contour>
      <point x="224.0" y="1502.0" type="line"/>
      <point x="413.0" y="1502.0" type="line"/>
      <point x="335.0" y="1004.0" type="line"/>
      <point x="163.0" y="1009.0" type="line"/>
    </contour>
    <contour>
      <point x="524.0" y="1502.0" type="line"/>
      <point x="713.0" y="1502.0" type="line"/>
      <point x="635.0" y="1004.0" type="line"/>
      <point x="463.0" y="1009.0" type="line"/>
    </contour>
  </outline>
</glyph>
<glyph name="breve" format="2">
  <advance width="1022"/>
  <unicode hex="02D8"/>
  <anchor x="429.0" y="1606.0" name="mkmktop_acc"/>
  <outline>
    <contour>
      <point x="741.0" y="1531.0" type="qcurve"/>
      <point x="873.0" y="1446.0" type="line"/>
      <point x="824.0" y="1344.0"/>
      <point x="639.0" y="1198.0"/>
      <point x="513.0" y="1198.0" type="qcurve" smooth="yes"/>
      <point x="400.0" y="1198.0"/>
      <point x="202.0" y="1331.0"/>
      <point x="152.0" y="1451.0" type="qcurve"/>
      <point x="310.0" y="1537.0" type="line"/>
      <point x="329.0" y="1479.0"/>
      <point x="435.0" y="1362.0"/>
      <point x="514.0" y="1362.0" type="qcurve" smooth="yes"/>
      <point x="598.0" y="1362.0"/>
      <point x="705.0" y="1470.0"/>
    </contour>
  </outline>
</glyph>
<glyph name="ogonek" format="2">
  <advance width="1024"/>
  <unicode hex="02DB"/>
  <outline>
    <contour>
      <point x="533.0" y="57.0" type="line"/>
      <point x="397.0" y="-6.0"/>
      <point x="275.0" y="-163.0"/>
      <point x="275.0" y="-243.0" type="qcurve" smooth="yes"/>
      <point x="275.0" y="-336.0"/>
      <point x="386.0" y="-434.0"/>
      <point x="467.0" y="-434.0" type="qcurve" smooth="yes"/>
      <point x="526.0" y="-434.0"/>
      <point x="603.0" y="-405.0"/>
      <point x="628.0" y="-390.0" type="qcurve"/>
      <point x="614.0" y="-213" type="line"/>
      <point x="599.0" y="-220"/>
      <point x="547.0" y="-235"/>
      <point x="514.0" y="-235" type="qcurve" smooth="yes"/>
      <point x="471.0" y="-235"/>
      <point x="436" y="-203"/>
      <point x="436.0" y="-177" type="qcurve" smooth="yes"/>
      <point x="436.0" y="-145"/>
      <point x="543.0" y="-47"/>
      <point x="607.0" y="0.0" type="qcurve"/>
    </contour>
  </outline>
</glyph>
<glyph name="tilde" format="2">
  <advance width="1024"/>
  <unicode hex="02DC"/>
  <anchor x="475.0" y="1598.0" name="mkmktop_acc"/>
  <outline>
    <contour>
      <point x="156.0" y="1296.0" type="line"/>
      <point x="189.0" y="1359.0"/>
      <point x="327.0" y="1457.0"/>
      <point x="394.0" y="1457.0" type="qcurve" smooth="yes"/>
      <point x="435.0" y="1457.0"/>
      <point x="510.0" y="1432.0"/>
      <point x="547.0" y="1408.0" type="qcurve" smooth="yes"/>
      <point x="581.0" y="1386.0"/>
      <point x="659.0" y="1362.0"/>
      <point x="697.0" y="1362.0" type="qcurve" smooth="yes"/>
      <point x="737.0" y="1362.0"/>
      <point x="794.0" y="1410.0"/>
      <point x="817.0" y="1446.0" type="qcurve"/>
      <point x="911.0" y="1333.0" type="line"/>
      <point x="873.0" y="1262.0"/>
      <point x="740.0" y="1190.0"/>
      <point x="683.0" y="1190.0" type="qcurve" smooth="yes"/>
      <point x="634.0" y="1190.0"/>
      <point x="540.0" y="1233.0"/>
      <point x="509.0" y="1250.0" type="qcurve" smooth="yes"/>
      <point x="475.0" y="1269.0"/>
      <point x="407.0" y="1283.0"/>
      <point x="378.0" y="1283.0" type="qcurve" smooth="yes"/>
      <point x="331.0" y="1283.0"/>
      <point x="265.0" y="1219.0"/>
      <point x="247.0" y="1192.0" type="qcurve"/>
    </contour>
  </outline>
</glyph>
<glyph name="hookabovecomb" format="2">
  <advance width="1024"/>
  <unicode hex="0309"/>
  <outline>
    <contour>
      <point x="454.0" y="1147.0" type="line"/>
      <point x="452.0" y="1206.0" type="line" smooth="yes"/>
      <point x="450" y="1258"/>
      <point x="513.0" y="1328.0"/>
      <point x="589.0" y="1339.0" type="qcurve" smooth="yes"/>
      <point x="645.0" y="1347.0"/>
      <point x="685" y="1359"/>
      <point x="685.0" y="1381" type="qcurve" smooth="yes"/>
      <point x="685.0" y="1399.0"/>
      <point x="626.0" y="1425.0"/>
      <point x="572.0" y="1425.0" type="qcurve" smooth="yes"/>
      <point x="508.0" y="1425.0"/>
      <point x="399.0" y="1410.0"/>
      <point x="386.0" y="1404.0" type="qcurve"/>
      <point x="332.0" y="1559.0" type="line"/>
      <point x="367.0" y="1578.0"/>
      <point x="521.0" y="1619.0"/>
      <point x="603.0" y="1619.0" type="qcurve" smooth="yes"/>
      <point x="723.0" y="1619.0"/>
      <point x="848.0" y="1505.0"/>
      <point x="848.0" y="1409.0" type="qcurve" smooth="yes"/>
      <point x="848.0" y="1308.0"/>
      <point x="720.0" y="1169.0"/>
      <point x="577.0" y="1158.0" type="qcurve"/>
      <point x="577.0" y="1147.0" type="line"/>
    </contour>
  </outline>
</glyph>
<glyph name="breveinvertedcomb" format="2">
  <advance width="1024"/>
  <unicode hex="030F"/>
  <outline>
    <contour>
      <point x="301.0" y="1186.0" type="qcurve"/>
      <point x="145.0" y="1269.0" type="line"/>
      <point x="189.0" y="1373.0"/>
      <point x="387.0" y="1518.0"/>
      <point x="513.0" y="1518.0" type="qcurve" smooth="yes"/>
      <point x="626.0" y="1518.0"/>
      <point x="831.0" y="1379.0"/>
      <point x="877.0" y="1265.0" type="qcurve"/>
      <point x="722.0" y="1183.0" type="line"/>
      <point x="687.0" y="1245.0"/>
      <point x="591.0" y="1354.0"/>
      <point x="512.0" y="1354.0" type="qcurve" smooth="yes"/>
      <point x="428.0" y="1354.0"/>
      <point x="334.0" y="1248.0"/>
    </contour>
  </outline>
</glyph>
<glyph name="horncomb" format="2">
  <advance width="1024"/>
  <unicode hex="031B"/>
  <outline>
    <contour>
      <point x="0.0" y="998.0" type="line"/>
      <point x="84.0" y="1018.0" type="line" smooth="yes"/>
      <point x="131" y="1029"/>
      <point x="204" y="1062"/>
      <point x="204.0" y="1114.0" type="qcurve" smooth="yes"/>
      <point x="204.0" y="1146"/>
      <point x="192.0" y="1204.0"/>
      <point x="181.0" y="1239.0" type="qcurve"/>
      <point x="327.0" y="1239.0" type="line"/>
      <point x="347.0" y="1206.0"/>
      <point x="380.0" y="1103.0"/>
      <point x="380.0" y="1039.0" type="qcurve" smooth="yes"/>
      <point x="380.0" y="951.0"/>
      <point x="240.0" y="836.0"/>
      <point x="144.0" y="836.0" type="qcurve" smooth="yes"/>
      <point x="98.0" y="836.0"/>
      <point x="26.0" y="858.0"/>
      <point x="0.0" y="887.0" type="qcurve"/>
    </contour>
  </outline>
</glyph>
<glyph name="quotedblleft" format="2">
  <advance width="830"/>
  <unicode hex="201C"/>
  <outline>
    <contour>
      <point x="92.0" y="1073.0" type="line"/>
      <point x="275.0" y="1073.0" type="line"/>
      <point x="275.0" y="1197.0" type="line" smooth="yes"/>
      <point x="275.0" y="1278.0"/>
      <point x="341.0" y="1406.0"/>
      <point x="401.0" y="1459.0" type="qcurve"/>
      <point x="266.0" y="1556.0" type="line"/>
      <point x="183.0" y="1488.0"/>
      <point x="92.0" y="1284.0"/>
      <point x="92.0" y="1194.0" type="qcurve" smooth="yes"/>
    </contour>
    <contour>
      <point x="512.0" y="1073.0" type="line"/>
      <point x="695.0" y="1073.0" type="line"/>
      <point x="695.0" y="1197.0" type="line" smooth="yes"/>
      <point x="695.0" y="1278.0"/>
      <point x="764.0" y="1405.0"/>
      <point x="821.0" y="1459.0" type="qcurve"/>
      <point x="686.0" y="1556.0" type="line"/>
      <point x="603.0" y="1488.0"/>
      <point x="512.0" y="1284.0"/>
      <point x="512.0" y="1194.0" type="qcurve" smooth="yes"/>
    </contour>
  </outline>
</glyph>
<glyph name="quotedblbase" format="2">
  <advance width="830"/>
  <unicode hex="201E"/>
  <outline>
    <contour>
      <point x="318.0" y="220.0" type="line"/>
      <point x="134.0" y="220.0" type="line"/>
      <point x="134.0" y="89.0" type="line" smooth="yes"/>
      <point x="134.0" y="8.0"/>
      <point x="66.0" y="-114.0"/>
      <point x="7.0" y="-171.0" type="qcurve"/>
      <point x="145.0" y="-270.0" type="line"/>
      <point x="227.0" y="-202.0"/>
      <point x="318.0" y="2.0"/>
      <point x="318.0" y="92.0" type="qcurve" smooth="yes"/>
    </contour>
    <contour>
      <point x="738.0" y="220.0" type="line"/>
      <point x="554.0" y="220.0" type="line"/>
      <point x="554.0" y="89.0" type="line" smooth="yes"/>
      <point x="554.0" y="8.0"/>
      <point x="486.0" y="-114.0"/>
      <point x="427.0" y="-171.0" type="qcurve"/>
      <point x="565.0" y="-270.0" type="line"/>
      <point x="647.0" y="-202.0"/>
      <point x="738.0" y="2.0"/>
      <point x="738.0" y="92.0" type="qcurve" smooth="yes"/>
    </contour>
  </outline>
</glyph>
<glyph name="dagger" format="2">
  <advance width="1008"/>
  <unicode hex="2020"/>
  <outline>
    <contour>
      <point x="406.0" y="-274.0" type="qcurve"/>
      <point x="402.0" y="8.0" type="line"/>
      <point x="423.0" y="748.0" type="line"/>
      <point x="423.0" y="802.0" type="line"/>
      <point x="72.0" y="802.0" type="line"/>
      <point x="72.0" y="1075.0" type="line"/>
      <point x="419.0" y="1075.0" type="line"/>
      <point x="406.0" y="1508.0" type="line"/>
      <point x="597.0" y="1508.0" type="line"/>
      <point x="584.0" y="1075.0" type="line"/>
      <point x="931.0" y="1075.0" type="line"/>
      <point x="931.0" y="802.0" type="line"/>
      <point x="580.0" y="802.0" type="line"/>
      <point x="580.0" y="748.0" type="line"/>
      <point x="601.0" y="8.0" type="line"/>
      <point x="597.0" y="-274.0" type="line"/>
      <point x="524.0" y="-415.0"/>
      <point x="480.0" y="-416.0"/>
    </contour>
  </outline>
</glyph>
<glyph name="minute" format="2">
  <advance width="654"/>
  <unicode hex="2032"/>
  <outline>
    <contour>
      <point x="69.0" y="983.0" type="line"/>
      <point x="259.0" y="870.0" type="line"/>
      <point x="588.0" y="1452.0" type="line" smooth="yes"/>
      <point x="395.0" y="1559.0" type="line"/>
    </contour>
  </outline>
</glyph>
<glyph name="coloncurrency" format="2">
  <advance width="1154"/>
  <unicode hex="20A1"/>
  <guideline x="0" y="1570.0" angle="0" identifier="0DwZ2nfhdf"/>
  <anchor x="720.0" y="0" name="bottom"/>
  <outline>
    <contour>
      <point x="992.0" y="1570.0" type="line"/>
      <point x="953.0" y="1324.0" type="line"/>
      <point x="940.0" y="1301.0" type="line"/>
      <point x="768.0" y="68.0" type="line"/>
      <point x="774.0" y="43.0" type="line"/>
      <point x="750.0" y="-125.0" type="line"/>
      <point x="521.0" y="-125.0" type="line"/>
      <point x="544.0" y="40.0" type="line"/>
      <point x="558.0" y="66.0" type="line"/>
      <point x="743.0" y="1361.0" type="line"/>
      <point x="736.0" y="1381.0" type="line"/>
      <point x="764.0" y="1570.0" type="line"/>
    </contour>
    <contour>
      <point x="710.0" y="1570.0" type="line"/>
      <point x="685.0" y="1395.0" type="line"/>
      <point x="672.0" y="1374.0" type="line"/>
      <point x="485.0" y="66.0" type="line"/>
      <point x="491.0" y="39.0" type="line"/>
      <point x="468.0" y="-125.0" type="line"/>
      <point x="239.0" y="-125.0" type="line"/>
      <point x="274.0" y="122.0" type="line"/>
      <point x="288.0" y="148.0" type="line"/>
      <point x="464.0" y="1376.0" type="line"/>
      <point x="457.0" y="1399.0" type="line"/>
      <point x="482.0" y="1570.0" type="line"/>
    </contour>
    <contour>
      <point x="85.0" y="612.0" type="qcurve" smooth="yes"/>
      <point x="85.0" y="844.0" type="line" smooth="yes"/>
      <point x="85.0" y="1154.0"/>
      <point x="387.0" y="1486.0"/>
      <point x="621.0" y="1486.0" type="qcurve" smooth="yes"/>
      <point x="856.0" y="1486.0"/>
      <point x="1123.0" y="1233.0"/>
      <point x="1123.0" y="1040.0" type="qcurve" smooth="yes"/>
      <point x="1123.0" y="990.0" type="line"/>
      <point x="941.0" y="990.0" type="line"/>
      <point x="941.0" y="1011.0" type="line" smooth="yes"/>
      <point x="941.0" y="1097"/>
      <point x="784.0" y="1232.0"/>
      <point x="621.0" y="1232.0" type="qcurve" smooth="yes"/>
      <point x="459.0" y="1232.0"/>
      <point x="271.0" y="1021"/>
      <point x="271.0" y="844.0" type="qcurve" smooth="yes"/>
      <point x="271.0" y="592.0" type="line" smooth="yes"/>
      <point x="271.0" y="425"/>
      <point x="469.0" y="214.0"/>
      <point x="631.0" y="214.0" type="qcurve" smooth="yes"/>
      <point x="794.0" y="214.0"/>
      <point x="946.0" y="366"/>
      <point x="946.0" y="442.0" type="qcurve" smooth="yes"/>
      <point x="946.0" y="466.0" type="line"/>
      <point x="1133.0" y="466.0" type="line"/>
      <point x="1133.0" y="426.0" type="line" smooth="yes"/>
      <point x="1133.0" y="241.0"/>
      <point x="866.0" y="-30.0"/>
      <point x="631.0" y="-30.0" type="qcurve" smooth="yes"/>
      <point x="392.0" y="-30.0"/>
      <point x="85.0" y="308.0"/>
    </contour>
  </outline>
</glyph>
<glyph name="approxequal" format="2">
  <advance width="1024"/>
  <unicode hex="2248"/>
  <outline>
    <contour>
      <point x="46.0" y="654.0" type="qcurve"/>
      <point x="46.0" y="951.0" type="line"/>
      <point x="93.0" y="1002.0"/>
      <point x="225.0" y="1060.0"/>
      <point x="290.0" y="1061.0" type="qcurve" smooth="yes"/>
      <point x="369.0" y="1062.0"/>
      <point x="461.0" y="1019.0"/>
      <point x="524.0" y="988.0" type="qcurve" smooth="yes"/>
      <point x="583.0" y="958.0"/>
      <point x="668.0" y="918.0"/>
      <point x="742.0" y="918.0" type="qcurve" smooth="yes"/>
      <point x="807.0" y="918.0"/>
      <point x="932.0" y="986.0"/>
      <point x="979.0" y="1046.0" type="qcurve"/>
      <point x="979.0" y="749.0" type="line"/>
      <point x="932.0" y="698.0"/>
      <point x="808.0" y="640.0"/>
      <point x="743.0" y="640.0" type="qcurve" smooth="yes"/>
      <point x="669.0" y="640.0"/>
      <point x="584.0" y="679.0"/>
      <point x="525.0" y="709.0" type="qcurve" smooth="yes"/>
      <point x="462.0" y="740.0"/>
      <point x="369.0" y="782.0"/>
      <point x="290.0" y="782.0" type="qcurve" smooth="yes"/>
      <point x="225.0" y="782.0"/>
      <point x="93.0" y="714.0"/>
    </contour>
    <contour>
      <point x="45.0" y="237.0" type="qcurve"/>
      <point x="45.0" y="534.0" type="line"/>
      <point x="92.0" y="585.0"/>
      <point x="224.0" y="642.0"/>
      <point x="289.0" y="643.0" type="qcurve" smooth="yes"/>
      <point x="368.0" y="644.0"/>
      <point x="460.0" y="601.0"/>
      <point x="523.0" y="570.0" type="qcurve" smooth="yes"/>
      <point x="582.0" y="540.0"/>
      <point x="667.0" y="501.0"/>
      <point x="741.0" y="501.0" type="qcurve" smooth="yes"/>
      <point x="806.0" y="501.0"/>
      <point x="931.0" y="569.0"/>
      <point x="978.0" y="629.0" type="qcurve"/>
      <point x="978.0" y="331.0" type="line"/>
      <point x="931.0" y="280.0"/>
      <point x="807.0" y="222.0"/>
      <point x="742.0" y="222.0" type="qcurve" smooth="yes"/>
      <point x="668.0" y="222.0"/>
      <point x="583.0" y="261.0"/>
      <point x="524.0" y="291.0" type="qcurve" smooth="yes"/>
      <point x="461.0" y="322.0"/>
      <point x="368.0" y="364.0"/>
      <point x="289.0" y="364.0" type="qcurve" smooth="yes"/>
      <point x="224.0" y="364.0"/>
      <point x="92.0" y="297.0"/>
    </contour>
  </outline>
</glyph>
<glyph name="leftanglebracket" format="2">
  <advance width="700"/>
  <unicode hex="27E8"/>
  <outline>
    <contour>
      <point x="-16.0" y="536.0" type="line"/>
      <point x="-16.0" y="665.0" type="line"/>
      <point x="552.0" y="1519.0" type="line"/>
      <point x="706.0" y="1409.0" type="line"/>
      <point x="175.0" y="604.0" type="line"/>
      <point x="709.0" y="-211.0" type="line"/>
      <point x="554.0" y="-322.0" type="line"/>
    </contour>
  </outline>
</glyph>
<glyph name="rightanglebracket" format="2">
  <advance width="700"/>
  <unicode hex="27E9"/>
  <outline>
    <contour>
      <point x="-11.0" y="-211.0" type="line"/>
      <point x="508.0" y="591.0" type="line"/>
      <point x="-13.0" y="1405.0" type="line"/>
      <point x="150.0" y="1521.0" type="line"/>
      <point x="699.0" y="659.0" type="line"/>
      <point x="699.0" y="530.0" type="line"/>
      <point x="141.0" y="-325.0" type="line"/>
    </contour>
  </outline>
</glyph>
<glyph name="diagonalbarL" format="2">
  <advance width="741"/>
  <outline>
    <contour>
      <point x="111.0" y="383.0" type="line"/>
      <point x="776.0" y="797.0" type="line"/>
      <point x="635.0" y="1047.0" type="line"/>
      <point x="-29.0" y="636.0" type="line"/>
    </contour>
  </outline>
</glyph>
<glyph name="horizontalbarH" format="2">
  <advance width="1458"/>
  <outline>
    <contour>
      <point x="1442.0" y="977.0" type="line"/>
      <point x="1452.0" y="1214.0" type="line"/>
      <point x="1220.0" y="1212.0" type="line"/>
      <point x="1220.0" y="975.0" type="line"/>
    </contour>
    <contour>
      <point x="15.0" y="975.0" type="line"/>
      <point x="245.0" y="975.0" type="line"/>
      <point x="245.0" y="1212.0" type="line"/>
      <point x="6.0" y="1212.0" type="line"/>
    </contour>
    <contour>
      <point x="245.0" y="985.0" type="line"/>
      <point x="1220.0" y="985.0" type="line"/>
      <point x="1220.0" y="1202.0" type="line"/>
      <point x="245.0" y="1202.0" type="line"/>
    </contour>
  </outline>
</glyph>
<glyph name="zerosuperior" format="2">
  <advance width="787"/>
  <outline>
    <contour>
      <point x="67.0" y="1036.0" type="line" smooth="yes"/>
      <point x="67.0" y="876.0"/>
      <point x="233.0" y="680.0"/>
      <point x="393.0" y="680.0" type="qcurve" smooth="yes"/>
      <point x="553.0" y="680.0"/>
      <point x="720.0" y="876.0"/>
      <point x="720.0" y="1036.0" type="qcurve" smooth="yes"/>
      <point x="720.0" y="1140.0" type="line" smooth="yes"/>
      <point x="720.0" y="1300.0"/>
      <point x="553.0" y="1496.0"/>
      <point x="393.0" y="1496.0" type="qcurve" smooth="yes"/>
      <point x="233.0" y="1496.0"/>
      <point x="67.0" y="1300.0"/>
      <point x="67.0" y="1140.0" type="qcurve" smooth="yes"/>
    </contour>
    <contour>
      <point x="231.0" y="1056.0" type="qcurve" smooth="yes"/>
      <point x="231.0" y="1130.0" type="line" smooth="yes"/>
      <point x="231.0" y="1174.0"/>
      <point x="320.0" y="1271.0"/>
      <point x="393.0" y="1271.0" type="qcurve" smooth="yes"/>
      <point x="470.0" y="1271.0"/>
      <point x="556.0" y="1177.0"/>
      <point x="556.0" y="1130.0" type="qcurve" smooth="yes"/>
      <point x="556.0" y="1056.0" type="line" smooth="yes"/>
      <point x="556.0" y="1002.0"/>
      <point x="482.0" y="905.0"/>
      <point x="392.0" y="905.0" type="qcurve" smooth="yes"/>
      <point x="302.0" y="905.0"/>
      <point x="231.0" y="1011.0"/>
    </contour>
  </outline>
</glyph>
